<svg xmlns="http://www.w3.org/2000/svg" data-name="Layer 1" viewBox="0 0 24 30" x="0px" y="0px"><title>trending, trend, fire, flame, burn, tinder, hot, ui, user interface, basic ui, ui basic, basic, </title><path d="M10,12.25C7.821,12.25,7.75,8.042,7.75,8A.75.75,0,0,0,6.433,7.51a10.664,10.664,0,0,0-2.168,4.343c-1.2,6.019,1.92,8.838,3.319,9.771a7.34,7.34,0,0,0,4.108,1.2,8.478,8.478,0,0,0,5.838-2.3,8.545,8.545,0,0,0,2.181-8.767,9.779,9.779,0,0,0-2.834-4.134A9.067,9.067,0,0,1,13.74,1.876a.75.75,0,0,0-1.289-.387c-.092.1-2.235,2.467-1.179,6.693.416,1.661.371,2.927-.126,3.563A1.406,1.406,0,0,1,10,12.25Zm2.328.418c.81-1.037.945-2.669.4-4.85A6.914,6.914,0,0,1,12.737,4.1a10.674,10.674,0,0,0,3.087,4.6,8.431,8.431,0,0,1,2.465,3.539A7.059,7.059,0,0,1,16.47,19.47a6.677,6.677,0,0,1-8.054.906c-1.148-.765-3.707-3.1-2.681-8.229a7.58,7.58,0,0,1,.752-2.022C6.9,11.94,7.905,13.75,10,13.75A2.872,2.872,0,0,0,12.328,12.668Z"/><text x="0" y="39" fill="#000000" font-size="5px" font-weight="bold" font-family="'Helvetica Neue', Helvetica, Arial-Unicode, Arial, Sans-serif">Created by Anggara Putra</text><text x="0" y="44" fill="#000000" font-size="5px" font-weight="bold" font-family="'Helvetica Neue', Helvetica, Arial-Unicode, Arial, Sans-serif">from the Noun Project</text></svg>