<?xml version="1.0"?>
<svg baseprofile="tiny" fill="#6f9c76" height="1000" stroke="#ffffff" stroke-linecap="round" stroke-linejoin="round" stroke-width=".5" version="1.2" viewbox="0 0 1000 1000" width="1000" xmlns="http://www.w3.org/2000/svg">
 <g id="features">
  <path d="M604.5 542.8l0.2 0 1.3-0.4 1 0.2 0.8 0.2 1 0.3 2.3 1.7 0.8 0.9 0.4 0.9 0.3 0.8 0.1 0.9 0.3 0.5 0.5 0.3 1.8 0.1 1 0.2 1.2 0.8 0.8 0.9 1.6 1.7 0.7 0.7 0.7 0.4 1.1 0 1.9-0.4 1-0.1 1.1 0.2 1.4 0.7 2 1.3 3.3 2.9 0.5 0.7 0.2 0.8 0 1-0.3 2.2 0 1.1 0.3 0.8 1.3 1.4 0.5 0.8 0.8 1.7 0.5 0.7 0.7 0.4 0.8-0.1 0.9-0.5 1.3-1.3 0.5-1 0.1-0.9-0.2-1.5-0.1-0.8 0.5-0.5 0.8-0.1 2.8 0.9 1.9 0.2 2.2 2.2 1 0.6 2.4 2.3 2.2 4.3 0.8 1 1.3 1.2 1.1 0.7 1.1 0.5 1.9 0.4 0.8 0.4 0.7 0.8 0.7 1.7 1.4 5.4 1.3 3.3-7.3 1.9-0.6 0-0.5-0.2-1.3-0.6-0.8-0.2-0.8 0-0.6 0.1-0.4 0.3-0.1 0.5 0.2 0.5 0.6 1 0.2 0.5 0.1 0.8-0.2 1.2-0.7 1.8-1.7 2.6-2.7 2.6-4.4 3.1-6.4 3-21.5 6.9-4 1.9-2.3 1.6-1.3 1.3-0.9 1.5-0.8 1.7-1.2 2.1-2.2 2.4-2.3 2.1-3.8 2.6-0.7 0.3-0.1-0.1 0-0.3 0-0.3 0-0.3 0-0.3 0-0.2 0-0.2 0.1-0.2 0-0.1 0-0.3-0.1-0.3 0.1-0.2 0-0.3-0.2-0.1-0.1-0.1-0.1-0.2-0.2-0.1-0.1-0.3 0-0.3-0.2 0-0.3 0.1-0.1 0.1-0.2-0.1-0.1-0.1-0.2 0-0.2 0.1-0.8-0.3-1.7 0.2-0.3-0.3-0.1-0.2-0.2-0.2-0.2-0.2-0.1-0.1-0.2-0.1-0.2-0.1 0-0.3 0-0.2 0.1-0.2 0.1-0.1 0.2-0.1 0.1-0.1 0-0.3-0.1-0.3 0-0.2 0-0.2 0.1-0.2 0-0.2 0-0.3 0.1-0.3 0.2-0.2 0-0.2 0-0.2 0-0.2 0-0.2-0.3-0.1-0.1-0.2-0.2-0.2-0.1-0.2-0.2-0.2-0.2 0-0.2-0.2-0.1-0.2-0.2-0.2-0.3 0.1-0.2-0.2 0-0.3 0.1-0.2 0.1-0.3 0-0.2 0-0.2 0.1-0.2 0.1-0.2 0.2-0.1 0.1-0.2 0.1-0.2 0.1-0.2 0.2-0.2 0-0.2 0.1-0.2 0.3-0.1 0.1-0.3-0.1-0.1-0.1-0.2 0.1-0.2 0.2-0.1 0.1-0.2 0.2-0.2 0.2 0 0.2 0.1 0.2-0.3 0.1-0.2 0-0.3 0.1-0.2 0.1-0.2 0.1-0.2 0.1-0.3 0.1-0.2 0.2 0 0.1-0.3 0.1-0.2 0-0.3 0.2-0.3 0.2-0.2 0.2-0.2 0-0.3-0.2-0.2-0.1-0.2 0-0.3 0.1-0.3 0.1-0.2 0.2-0.1 0.1-0.2 0-0.2 0-0.2 0-0.4-0.1-0.2-0.1-0.3 0-0.3 0-0.2 0-0.2-0.1-0.3-0.2-0.1-0.1-0.1-0.1-0.2-0.1-0.3-0.2 0-0.1-0.2 0-0.2 0-0.3 0.1-0.2 0.2-0.1 0.2-0.2 0.1-0.3 0.1-0.3 0.2-0.2 0.1-0.2 0.1-0.2 0-0.2 0-0.2 0-0.2 0.1 0 0.2 0 0.1-0.1 0.2-0.2 0.1-0.2 0.2-0.1 0.2-0.2 0.2-0.2 0.2-0.1 0.2-0.1 0.1-0.2 0-0.1 0-0.3 0.1-0.2 0.1-0.2 0.1-0.2 0.1-0.3 0.1-0.2 0-0.2 0.1-0.2 0.1 0.1 0.2 0.1 0.1 0.1 0.1 0.2 0.2 0.2 0.3 0 0.2-0.1 0.2 0 0.2 0.1 0.2 0.1 0.3-0.1 0.2-0.1 0-0.3 0-0.2 0-0.3 0-0.2 0-0.2 0.1-0.3 0.2-0.2 0.2-0.1 0-0.2 0.1-0.2 0.1-0.2 0-0.2 0.1-0.2 0.1-0.2-0.1-0.2-0.1-0.2 0-0.2 0.1-0.2 0.1-0.2 0-0.2 0-0.2 0.1-0.2 0-0.2 0.2-0.2 0-0.2 0.1-0.2 0.1-0.2-0.1-0.2-0.1-0.1-0.1-0.2 0.1-0.2 0.4-0.1 0.1-0.2 0.2-0.2 0-0.3 0-0.2 0.1-0.2 0.1-0.2 0.1-0.2 0-0.2 0-0.2 0.2-0.1 0-0.3 0.1-0.2-0.1-0.3-0.3-0.1 0-0.2-0.1-0.2 0-0.2 0-0.2-0.1-0.2-0.1-0.3-0.1-0.2 0.2-0.2 0-0.2 0.1-0.2 0.1-0.2 0.2 0 0.3-0.1 0.2-0.1 0.1-0.1 0.2-0.2 0.1-0.1 0-0.3 0-0.2 0.2-0.1 0.2 0 0.2-0.1 0.2-0.2 0-0.2 0-0.3 0-0.2-0.1-0.2-0.2-0.2-0.1-0.3 0-0.3-0.1-0.2 0-0.2 0.1-0.1 0.2-0.2 0-0.3-0.2-0.2 0-0.2 0-0.3 0.1-0.2 0.2-0.2-0.3-0.1-0.3 0-0.1 0-0.1 0-0.2-0.1-0.1 0-0.1 0-0.2 0.1-0.1 0.2-0.6-1.3 0.1-0.8-0.4-0.6-0.6-0.5-0.4-0.6 0.6-0.8-0.3-0.9-0.5-0.9-0.2-0.9 0.4-0.9 2.5-2.3 0.8-1.2 0.2-0.7-0.5-0.5-2.7-2.1-0.1 0-0.7-0.6-1-0.5-0.6-0.5-0.5-0.7-0.3-0.8 0.1-0.9-0.4-1 0.1-0.8 0.5-0.5 1.1-0.1 1.7-0.6 1-0.2 0.3-0.1 0.7 0 0.3 0 1.3 0.2 0.9 0 0.6-0.7 0.1-0.7-0.6-1.1 0-0.6 0.3-0.4 0.8-0.7 0.4-0.3 0.3-0.4 0.2-0.3 0.1-0.2 0.3-1 0-0.2 0.2-2 0.2-0.6 0.5-0.5 0.4 0.2 0.3 0.3 0.4-0.1 0.1-0.4 0.5-2.9 0-0.9-0.4-0.9-0.9-0.9-1.1-0.9-1.5-1.1-0.7-0.8-0.4-1.1-0.1-2.3-0.1-0.2 0-0.1z" id="VN28" name="Kon Tum">
  </path>
  <path d="M603.5 705.8l6.2-0.2 10.4 0 1.3 2.3 0.6 5.5 2.2 1.5-0.1 0.6-0.1 0.8 0.1 0.4 0.8 0.4 3.1 1.1 0.8 0.8 0.3 0.2 0.7 0.5-0.3 1.2-0.8 1.3-0.6 0.7-0.8-0.4-0.9 0.3-0.8 0.7-0.3 0.9 0.1 1.3 0.2 1.1 0.4 1 1.5 2.3 0.7 0.5 0.9 0.2 0.9 0 1.2 0.3 1 0.4 0.6 1.1 1.1 0.5 0.4 0.8 1.1 1.8 1.3 1 0.3 0.3 0.1 0.6-0.2 0.6-0.2 0.5-0.1 0.6-0.3 0.6-0.2 0.5-1.1 0.2-2.4-0.3-1 0.4-0.7 0.6-0.6 0.5-0.6-0.3-0.4 0-0.1 0.7-0.6 1.4-0.1 0.6 0 0.8 0.1 0.2 0.2 0 0.5 0.4 0.6 0.5 0.4 0.2 0.2 0.3 0.1 1.5 0.2 0.5 0.5 0.7 1.5 1.5 0.2 0.4 0.2 0.7 0.5 0.3 0.5 0.2 0.4 0.3 0.3 1-0.3 1.6 0.1 1.1-0.6 1.7-1.1 1.7-2.1 2.1-1 0.8-0.6 0.2-0.3-0.2-0.4-0.3-0.2-0.4-0.3-0.4-0.4-0.2-0.6-0.1-2 0.3-0.7-0.1-0.4-0.4-0.3-0.6 0-0.8 0-0.7 0-0.5-0.2-0.5-0.4-0.4-0.5-0.2-0.6-0.2-0.6 0.1-1.7 0.2-0.9 0.3-2 0.3-0.4 0.1-0.4-0.1-0.4-0.2-0.8-0.6-0.1-0.2-0.2-0.2-0.2-0.3 0-0.4-0.1-0.9-0.1-0.3-0.2-0.3-0.5-0.1-0.6-0.1-0.9 0.2-0.5 0.2-0.4 0.3-0.3 0.9-0.4 0.6-3.1 2.9-3.5 2.3-0.8 0.3-1.8 0.2-1 0.3-0.7 0.5-0.8 0.6-0.7 0.3-1.2 0.3-0.8 0.1-0.6 0-1.8-0.5 0.6-2 0-0.8-0.2-0.6-0.5-0.7-0.5-0.8-0.3-1.1-0.4-2.7-0.5-1.3-0.8-1.4-0.9-1-3.4-2.2-0.8-1.6-0.7-2.7-1-13.9 0.3-0.1 0.1-0.2 0.3-0.1 0.2-0.2 0.3-0.2 0.2-0.1 0.1-0.1 0.3-0.1 0.2-0.2 0.2-0.2 0-0.1 0.4-0.1 0.2 0.1 0.3 0 0.2-0.1 0.1-0.1 1.4-0.1 0 0.2 0.1 0.1 0.2 0.1 0.2-0.1 0.2-0.1 0.1-0.1 1.1 0.7 1.8 2.7 1.1 1 0.6 0 0.2 0.1 0.2 0.1 0.2 0.1 0.2 0.2 0.1 0.1 0.1-0.2 0.2 0 0.2 0 0.2 0 0.2 0 0.1-0.4 0.1-0.3 0.2-0.2 0.1-0.2-0.2-0.3 0.1-0.3 0.1-0.2 0.1-0.2 0-0.3 0.1-0.2 0.3-0.2 0.2 0 0.1 0 0.2-0.1 0.1-0.1 0.2-0.1 0.1-0.2 0.1-0.2 0-0.2 0.1-0.2 0.2-0.1 0.2-0.1 0.2-0.1 0.2-0.1 0.2-0.1 0.1 0 0.3-0.1 0.2-0.1 0.3-0.1 0.1-0.1 0.2-0.1 0.3-0.1 0.1-0.2 0.1-0.2 0.1-0.1 0.2-0.1 0.2 0 0.1 0 0.1-0.2 0.1-0.2 0.2 0.1 0.1-0.1 0.1-0.3 0.2 0 0.2 0.1 0.1-0.2 0.1-0.2 0.1-0.2 0-0.3-0.1-0.2-0.1-0.3 0.2-0.1 0.2-0.1 0.2-0.2-0.2-0.3-0.2-0.2 0-0.2-0.1-0.2-0.1-0.3 0.1-0.2-0.1-0.3 0-0.3 0-0.2 0.2-0.1 0.2-0.2 0.1-0.2 0.1-0.2 0-0.2 0.1-0.2 0.1-0.2 0.1-0.3 0.1-0.2 0.2-0.2 0.1-0.3-0.1-0.2 0.1-0.2 0.1-0.1-0.1-0.3 0-0.2 0-0.2 0.2-0.1 0.2-0.1 0.1-0.1 0.1-0.2 0-0.2 0.1-0.3 0.1-0.3-0.1-0.1-0.2-0.1-0.2-0.2-0.1-0.1-0.1-0.3 0-0.3-0.2-0.1-0.1-0.1 0-0.3 0.1-0.2 0.2-0.2 0.2-0.1 0.1-0.1 0.2-0.1 0.1-0.2-0.1-0.3 0.1-0.2 0.2-0.2 0.1-0.2 0.1-0.1 0.2-0.1 0.1-0.2-0.1-0.2-0.2-0.2-0.1-0.2-0.1-0.2-0.1-0.1 0-0.3 0-0.3 0.1-0.2 0-0.2 0-0.2 0.1-0.1 0.1-0.2 0-0.3-0.1-0.2-0.1-0.2 0.1-0.2-0.1-0.2 0-0.1-0.2-0.2-0.2-0.2-0.1-0.2 0-0.2-0.1-0.3 0-0.2-0.1-0.2 0.1-0.3 0.1-0.2-0.2-0.1 0-0.3 0.1-0.2 0-0.3 0.3-0.3 0-0.2 0.1-0.2 0.2-0.2-0.2-0.1-0.1-0.2-0.1-0.1-0.1-0.3-0.2-0.1 0-0.2-0.1-0.3-0.3-0.1-0.1-0.2-0.1-0.3 0-0.2 0-0.1z" id="VN72" name="Đắk Nông">
  </path>
  <path d="M636.3 739.9l0.3-0.6 0.1-0.6 0.2-0.5 0.2-0.6-0.1-0.6-0.3-0.3-1.3-1-1.1-1.8-0.4-0.8-1.1-0.5-0.6-1.1-1-0.4-1.2-0.3-0.9 0-0.9-0.2-0.7-0.5-1.5-2.3-0.4-1-0.2-1.1-0.1-1.3 0.3-0.9 0.8-0.7 0.9-0.3 0.8 0.4 0.6-0.7 0.8-1.3 0.3-1.2-0.7-0.5-0.3-0.2-0.8-0.8-3.1-1.1-0.8-0.4-0.1-0.4 0.1-0.8 0.1-0.6-2.2-1.5-0.6-5.5-1.3-2.3-10.4 0-6.2 0.2 0.2-0.2 0.1-0.2 0.2-0.2 0-0.3-0.2-0.2-0.1-0.2 0.1-0.3-0.3-0.2 0-0.3 0-0.1 0-0.3 0-0.3 0-0.3 0.1-0.2 0-0.2-0.1-0.2 0-0.3 0.2-0.2-0.1-0.3-0.1-0.2 0-0.2-0.1-0.3-0.2-0.1-0.1-0.3 0-0.2 0.1-0.2-0.2-0.1-0.1-0.2-0.2-0.1-0.2-0.2 0-0.2 0-0.2-0.2-0.1-0.2-0.1-0.1-0.1-0.2-0.1-0.2 0-0.1-0.3-0.1-0.2-0.1-0.2-0.1-0.2-0.2 0-0.3-0.2 0-0.2 0.1-0.2-0.1-0.2-0.2-0.1-0.2 0-0.1-0.2-0.2-0.2-0.1-0.2 0-0.2-0.1-0.3 0-0.2-0.2-0.2 0-0.3 0.2-0.2-0.1-0.2 0.1-0.3 0.2 0 0-0.3-0.2-0.1-0.1-0.2-0.1-0.1 0-0.2 0-0.3 0-0.2-0.1-0.3-0.2-0.1-0.1-0.1-0.1-0.2 0.2-0.2-0.1-0.2 0-0.2 0-0.2 0.1-0.1 0.1-0.2-0.1-0.3 0-0.1 0.2-0.1 0.3 0 0.3-0.1 0-0.2-0.2-0.2-0.1-0.3 0-0.2 0.1-0.3 0-0.3-0.2-0.1-0.2 0 0-0.2 0-0.3 0.1-0.2-0.2-0.2 0.1-0.2 0.2-0.3 0-0.2 0.8-2.2 1-2.8 0.3-0.9 0.4-1.1 0.6-1.6 0.5-1.4 0.8-1.8 0.4-1.1 0.3-0.7 0.7-1.5 1.6-1 2.4-1.8 0.6-0.4 0.5-0.2 7.2-1 7.4 0.3 1-0.2 1-0.3 4-1.8 1.1-0.3 1.2 0 2.3 0.2 15.1 5.4 1.3 1 1.3 1.7 0.8 1.4 0.7 1.6 2.2 7.7 2.5 2.5 8.6 2.2 3.8 6.1 0.8 0.9 1.2 1 3.5 2.1 2.5 1.3 1.5 0.5 4.8 1.1 4.1 1.7-4 3.4-0.4 0.3-0.6 0.1-1.2 0-0.5 0.1-0.5 0.1-0.5 0.3-0.5 0.7-0.5 1.1-0.9 2.5-0.1 1.2 0.1 0.9 0.3 0.5 0 0.7-0.3 0.9-0.6 1.4-0.6 2-0.4 0.5-0.7 0.3-0.8-0.2-2.1-1.2-0.6-0.2-0.6 0-0.6 0.1-0.6 0.3-1.1 0.5-0.4 0.1-0.4 0-1.3-0.2-0.5 0-0.4 0.3-0.3 0.6-0.2 1.2-0.2 2.2 0.3 2.6 0.7 4-2.5 1.5-0.9 0.2-1.2 0.2-1-0.2-2.9-1.2-1.2-0.3-1 0.1-0.9 0.3-3.4 3-1 0.5-1 0.1-2.5-0.4-0.8 0-0.8 0.4-0.9 0.7-1.8 0.9-0.8 0.6-0.5 0.5-0.2 0.5-0.2 1-0.3 0.4-0.4 0.1-0.3-0.1-0.5-0.3-0.6-0.1-1.2-0.1-1.7-0.4-0.8 0-0.6 0.3-0.6 0.5-0.7 0.4z" id="VN33" name="Đắk Lắk">
  </path>
  <path d="M597.4 632.6l0.7-0.3 3.8-2.6 2.3-2.1 2.2-2.4 1.2-2.1 0.8-1.7 0.9-1.5 1.3-1.3 2.3-1.6 4-1.9 21.5-6.9 6.4-3 4.4-3.1 2.7-2.6 1.7-2.6 0.7-1.8 0.2-1.2-0.1-0.8-0.2-0.5-0.6-1-0.2-0.5 0.1-0.5 0.4-0.3 0.6-0.1 0.8 0 0.8 0.2 1.3 0.6 0.5 0.2 0.6 0 7.3-1.9 2.9 2.7 0.9 4.2 0.3 4.3-0.7 5-2.4 9.5 0 4 0.5 2.6 0.9 1.9 1 1.4 1.7 2 0.6 0.8 0.2 0.8 0 1.1-0.3 1.3-0.1 1.6 0.3 1.4 0.7 1.5 2.7 3.7 1.4 2.8 0.6 1.7 0.8 4.9 0.2 6.5-0.2 7.7 0.2 1.4 0.4 1.1 1 2.1 0.3 1.1 0 1.1-0.1 1.2 0.1 1.1 0.2 0.9 0.9 1.6 0.2 0.8-0.1 0.9-0.6 1-1.1 1.2-2 1.5-4.9 2.7-1.2 0.9-1.2 1.2-1.3 1.9-0.3 2.6-8.6-2.2-2.5-2.5-2.2-7.7-0.7-1.6-0.8-1.4-1.3-1.7-1.3-1-15.1-5.4-2.3-0.2-1.2 0-1.1 0.3-4 1.8-1 0.3-1 0.2-7.4-0.3-7.2 1-0.5 0.2-0.6 0.4-2.4 1.8-1.6 1-0.1 0-1.8 0.9 0.8-1.9 1.9-4.6 0.2-1.8-0.4-6-0.4-2.2-4.9-9.5-1-1.5-1.4-1.5-0.1-0.3-0.5-0.9-1.1-1.3-0.3-1 0-0.6 0.4-1.3 0-0.5-0.6-1.9 0.3-1 0.3-0.7 0.1-0.7-0.1-0.7 0.6-0.4z" id="VN30" name="Gia Lai">
  </path>
  <path d="M584.1 731.2l1 13.9 0.7 2.7 0.8 1.6 3.4 2.2 0.9 1 0.8 1.4 0.5 1.3 0.4 2.7 0.3 1.1 0.5 0.8 0.5 0.7 0.2 0.6 0 0.8-0.6 2-3.7 2-0.5 0.6-0.9 0.9-1.1 2.3-0.2 0.9 0 0.7 0.9 1.2 0.4 0.8 0.3 0.6 0 1.1-4.4 2.3-5.5 1.8-1.2 0.6-0.9 0.8-0.5 1-0.3 0.7-0.2 0.8-0.1 1-0.1 0.5-0.2 0.4-0.8 0.9-0.6 1.1-0.6 0.9-1.2 1.2-1 0.7-0.5 0.5-0.2 0.3-0.2 0.5-0.4 0.4-1.3 0.6-1.9-0.1-2.8-0.9-4.3-1.8-1.2-0.3-0.8 0-0.3 0.4-0.5 0.5-0.6 0.5-1.5 0.4-0.6-0.1-0.3-0.3 0.1-0.4 0.6-0.7 0-0.4-0.3-0.5-0.8-0.8-0.6-0.1-0.4 0.2-0.2 0.6-0.2 0.7-0.3 0.6-0.7 0.4-1.1 0.1-0.5-0.2-0.3-0.3-0.1-1-0.2-0.4-0.6-0.7-0.2-0.6-0.1-0.5 0.1-0.6 0.2-0.9 0.1-1.2-0.1-0.5-0.3-0.5-0.7-0.5-1.7-1.1-0.9-0.4-0.8-0.2-0.8-0.1-0.3-0.2-0.2-0.2-0.1-0.2-0.1-0.7-0.2-0.5-0.5-0.6-0.6-0.6-0.9-0.6-1-0.9 0.7-0.2 0.2 0 0.4-0.1 0.2-0.2 0-0.7-0.1-1.1-1-3.7-0.6-1-0.5-0.1-1-0.4-0.5-1.3-1.6-2.8-0.1-0.9 0.3-0.9 0.5-0.8 0.4-0.8 0.1-0.5 0-1.2 0.1-0.4 0.9-1.4 0.1-0.1-0.3-1.5-1.7-3.3-0.5-1.4-0.1-0.2 1.1-0.3 0.1 0.1 0.2 0 0.2 0 0.2 0 0.2 0 0.1 0 0.2 0 0-0.2 0.5 0.1 0.6 0.4 0.2 0.5 0.3 0.4 0.8 0 1.8-1.2 1.6 0-0.1 0.2 1.6-0.1 0.6 0 3.7 0.5 0.1 0 0.2 0 0-0.1 0-0.1 0-0.1 0.2-0.3 0.1-0.1 0.1 0.1 0 0.1 0.1 0.2 0.2 0.2 0.2-0.1 0.2 0.1 0.2 0 0.1-0.2-0.1-0.1 0-0.1 1.4 0.4 0.1-0.1 0.2 0 0.2 0.1 0.3 0 0.3-0.3 0.2 0.1 0.2 0 0.2 0 0.2-0.1 0.1-0.2 0.3 0.1 0.1-0.3 0.2-0.2 0.1-0.1 0.1-0.2 0.2-0.1 0.2-0.2 0-0.2 0.2-0.1 0-0.2 0.1-0.2 0.2 0 0-0.3 0.1-0.1 0.1-0.3 0-0.3 0-0.2 0.2-0.1 0.2-0.1 0.1-0.3 0.2 0-0.1-0.2 0.2-0.1 0-0.2 0-0.2 0.3-0.1 0.1-0.2 0-0.2 0.2-0.3 0.2-0.1 0-0.2 0.2-0.2 0.2-0.2 0-0.1 0.5 0 0.8-0.1 4.5 0.4 1.9-0.2 0.1 0.1 0.3 0.1 0.2-0.1 0.3 0 0.3-0.2 0.2 0 0.2-0.1 0.2 0.1 0.2-0.1 0.2-0.2 0.2-0.2 0.3 0 0.3-0.1 0.8-0.2 1.2-0.4 0.3-0.1 0.3-0.3 0.5-0.8 0.8-0.4 0.3-0.9 0.2-0.1 0.2-0.1 0.2 0 0.2-0.2 0.1-0.4 0.3-0.1-0.1-0.3 0.1-0.2 0.2-0.2 0-0.1 0.1-0.3 0.2 0.2 0.2-0.1 0.1 0 0.2-0.1 0.2-0.1 0.2 0 0.1-0.3-0.2-0.1-0.2-0.2-0.1-0.1-0.1-0.2 0.1-0.1 0.1-0.2 0-0.3 0.2 0.1 0.2 0.1 0.2 0 0.2 0 0 0.2 0.3 0 0.2-0.2 0-0.3 0.1-0.1 0-0.2 0-0.2 0.2-0.2 0-0.2 0.1-0.2 0.3-0.1 0.1-0.3 0.2-0.2 0.2 0.1 0.2-0.2 0.2-0.2 0.2-0.2 0.3 0 0.2-0.1 0.2-0.1 0.1-0.2-0.1-0.3 0-0.3 0.1-0.2 0.1-0.2 0.2 0 0-0.3 0-0.2 0.2-0.1-0.1-0.3 0.3-0.1 0-0.2 0-0.2 0.1-0.2 0.2-0.1 0.3 0 0.1 0 0.3 0 0.2-0.1 0.2-0.1 0.2-0.2 0.3 0.1 0.1-0.2 0-0.2 0.3-0.2 0.1-0.1 0.2 0 0.2-0.1 0.1-0.1 0.2 0.1 0.2-0.1 0.3-0.1 0.1 0.1 0.3-0.1 0.1 0.2 0.2 0 0.3 0z" id="VN58" name="Bình Phước">
  </path>
  <path d="M538.3 768.8l0.5 0.1 0.6 1 1 3.7 0.1 1.1 0 0.7-0.2 0.2-0.4 0.1-0.2 0-0.7 0.2-1.9 3.6-1.1 1.3-0.6 0.5-0.9 0.9-0.5 0.7-1.5 3.3-0.4 1.1-0.2 1.2-0.1 2.3 0.1 1 0.2 1 0.3 0.9 0.7 1.2 0.4 0.5 0.2 0.4 0.2 0.6 0.1 0.5 0.1 0.5 0.3 0.3 0.3 0.4 1 0.7 0.8 0.9 0.5 2-0.7 3.5-0.4 1.2-0.6 1.3-0.6 0.8-1.6 1.7-2-1.8-0.8-0.5-0.8-0.2-0.4 0.1-0.1 0.4 0 0.4 0.1 0.6-0.2 0.4-0.4 0.4-4.9 1.5-0.8-0.1-0.6-0.1-0.5-0.4 0.6 0 0.3-0.2 0.2-0.2-0.7-1.1-1-3.5-0.6-1-1.1-0.8-0.7-0.1-0.3-0.1-0.9 0.5 0 0.1-0.7 1.2-0.6-1.2-0.8-1-2-1.7-0.9-1-1.5-2.3-0.8-0.8-3.2-0.8-1.2-0.9-0.6-1.6 0-0.1-0.2-1.2-0.7-0.5-1-0.3-0.8-0.6 0-0.8 1-4.5 0.6-2.1 0.2-0.9-0.1-0.9-0.9-3.2 0.1-1.5-0.1-0.8-0.2-0.7-0.7-0.5-1.6-0.3-0.7-0.4-0.6-1-0.1-0.2 0-0.4 0.1-0.1 0.2-0.1 0.2-0.1 0.4 0 0.2-0.1 0.1-0.2 0-0.2 0.1-0.1-0.1-0.2 0-0.2-0.1-0.2 0.2-0.1 0.2 0 0.2 0 0.3 0 0.2-0.1 0.2-0.2 0.1-0.2 0.1-0.1 0.1-0.2 0-0.2 0-0.3 0-0.3 0.2-0.1 0.2-0.2 0.2-0.3 0.2-0.2 0.4-0.1 2.8 1 1.7 0.1 0.1-0.1 0.3 0.1 0.2 0.1 0.1 0 0.2 0 0.3 0.1 0.2-0.2 0.2-0.3 0.2-0.2 0.2-0.1 0.1-0.2 0.2-0.2 0-0.1 0.2-0.2 0.2-0.1 0.1-0.1 0.1-0.3-0.1-0.2 0-0.3-0.2-0.3 0.2-0.2 0.1-0.2 0.2-0.1 0.1-0.1 0.2-0.2 0.2-0.1 0.1-0.1 0.2 0 0.2-0.1 0.1-0.2 0.1-0.2 0-0.1 0.1-0.3 0.1-0.3 0.1-0.1 0.2-0.1 0-0.2 0-0.3 0-0.2-0.1-0.3-0.1-0.2-0.1-0.1 0.1-0.3 0-0.1 0.1-0.2 0-0.2 0.1-0.2 0.1-0.2 0.1-0.1 2.5 0.4 2.5 0.8 0 0.1 0.3 0.1 0.2 0.1 0.2 0.1 0.2 0 0.2-0.1 0.2 0 0.3 0 0.2 0 0.2 0.1 0.2 0.1 0.3 0.1 0.2 0.1 0.2 0.1 0.3-0.1 0.2-0.2 0.1-0.1 3.6 1.1 1.1 0.6 0.5 0.5 0.8 1.4 0.5 0.4 0.8 0.1 0.6-0.1 0 0.2 0.4 0 0.3 0 0.3-0.1 0.2 0 0.1-0.2 0.1-0.1 0.2-0.1 0.2-0.1 0.1-0.1 0.3-0.1 0 0.2 0.1 0.1 0.3-0.1 0.2-0.1 0.3-0.1 0.2-0.1 0-0.1 0.1 0 0.5 0.1 0.9 0.3 1.3 0.9 0.7 0.4 0.8 0 0.3-0.6 0.2 0.1 0.3 0 0.2 0 0.2 0 0.2 0 0.1-0.1z" id="VN37" name="Tây Ninh">
  </path>
  <path d="M521.7 810.9l0.5 0.4 0.6 0.1 0.8 0.1 4.9-1.5 0.4-0.4 0.2-0.4-0.1-0.6 0-0.4 0.1-0.4 0.4-0.1 0.8 0.2 0.8 0.5 2 1.8 1.9 1.1 2.4 0.9 1.3 0.7 1.1 0.7 1.1 1.1 0.9 1.3 0.8 2.1 0.1 1.5-0.2 1.4-1.2 2.2-0.4 1-0.1 0.8 0.6 0.7 1.1 0.8 2.5 1.4 2.6 1.1 0.7 0.5 0.8 0.8 0.6 0.5 0.8 0.1 0.5-0.3 0.6-0.4 0.5-0.3 0.7-0.1 0.7 0.2 0.9 0.5 0.7 0.7 0.4 0.8-0.1 1.1-0.2 1.8 0 0.5 0.3 0.6-0.2 0.7-0.4 1-0.8 0.5-1.9 0.7-0.9-0.1-0.6-1-0.4 0 0.2 0.9 0.2 0.3 0.4 0.4-0.7 0.2-0.6 0.3-0.5 0.4-0.5 1.3-0.6 0.3-0.8 0.3-0.7 0.5 0-1-0.1-0.7-0.3-0.7-0.5-0.5 0.2 2.1 0.2 0.9 0.7 0.3 1-0.2-0.4 0.7-1.4 0.6-2.5 0-1.7-0.2-2.8 0.2-0.8-0.1-0.5-0.4-0.1-0.6 0.1-1.2 0-0.5-0.2-0.6-0.5-0.5-1-0.4-1.6-0.3-1-0.4-0.8-0.5-2.5-3.5-0.8-0.7-0.7-0.4-1-0.2-6.2-0.3-1.2 0.1-1.1 0.6-1.1 1.4-0.6 0.5-1.2 0.3-1.6 0-2.9-0.5-2.3-0.1-2.3-0.8-3.4-2.5-12.5-11.8-3.7-4.5-0.9-0.9-1.6-1-0.6-0.5-0.5-0.4-0.1-0.4-0.2-0.7 0-0.3 0.2 0 0.3-0.1 0.3 0 0.2-0.1 0.3-0.1 0.3-0.2 0.2 0 0.2-0.1 0.3 0 0.2-0.1 0.3 0 0.3-0.1 0.3 0 0.2-0.1 0.2-0.1 0.3 0 0.2-0.1 0.2 0 0.2-0.1 0.2-0.1 0.3-0.1 0.2-0.1 0.3 0 0.2-0.1 0.2 0 0.3-0.1 0.1-0.1 0.3 0 0.4-0.1 0.2-0.1 0.2 0 0.1 0 1.1-0.8 1.4-0.8 0.5-0.1 1.2-0.4 1.6 0.2 0.9 1.1 1.1 1.9 2 2.7 0.4 1 0.7 2 0.4 0.9 0.8 1 1.1 0.6 1.2 0 0.5-0.6 0.2-0.2 0.5-1 0.6-1.3 0.1-1 1.1 1 0.8 0.6 0.6 0.7 1.1 1.2 1.5 1.1 1.6 0.9 1.6 0.5 3.3 0.3 1.5 0.4 1.3 1.1-0.7-2.7-0.8-3.1-1.4-2.7-0.3-1 0.1-0.1 0-1.6-0.1-0.1 0.3-0.6 0.2-0.2 0.8-0.1 0.3-0.1 1.2 0.1z" id="VN41" name="Long An">
  </path>
  
 </g>
</svg>