<?xml version="1.0" encoding="UTF-8"?><svg id="Layer_2" xmlns="http://www.w3.org/2000/svg" viewBox="0 0 386.66 212.79"><defs><style>.cls-1{stroke:#f7941d;}.cls-1,.cls-2{fill:#fff;}.cls-1,.cls-3{stroke-miterlimit:10;stroke-width:5px;}.cls-4{fill:#f7941d;}.cls-5{fill:#fbb040;}.cls-6{fill:#231f20;}.cls-3{fill:none;stroke:#231f20;}</style></defs><g id="Layer_1-2"><polygon class="cls-1" points="32.56 5.82 9.89 53.47 55.23 53.47 32.56 5.82"/><path class="cls-4" d="m18.71,106.22h225.32c46.38,0,84.03,37.65,84.03,84.03v22.55H102.74c-46.38,0-84.03-37.65-84.03-84.03v-22.55h0Z"/><path class="cls-5" d="m154.06,94.77L0,5.82v125.03c0,23.5,25.44,38.18,45.78,26.43l108.28-62.51Z"/><polygon class="cls-6" points="154.06 94.77 131.36 81.66 131.36 107.87 154.06 94.77"/><line class="cls-3" x1="105.56" y1="110.27" x2="90.56" y2="148.27"/><line class="cls-3" x1="94.06" y1="110.02" x2="69.06" y2="131.52"/><line class="cls-3" x1="95.56" y1="101.52" x2="52.56" y2="102.27"/><path class="cls-3" d="m21.35,71.68c4.84,6.82,21.58,7.87,30.01,1.89"/><path class="cls-5" d="m382.18,8.98h4.48v148.86c0,29.87-24.25,54.12-54.12,54.12h-4.48V63.1c0-29.87,24.25-54.12,54.12-54.12Z"/><path class="cls-2" d="m348.06,117.39h0c17.4,0,31.5-14.1,31.5-31.5V20.18h0c-17.4,0-31.5,14.1-31.5,31.5v65.72Z"/></g></svg>