<svg width="16" height="16" viewBox="0 0 16 16" fill="none" xmlns="http://www.w3.org/2000/svg">
<path d="M4.25001 3.75C4.12208 3.75 3.99412 3.79886 3.8965 3.89648C3.70125 4.09173 3.70125 4.40827 3.8965 4.60352L7.29298 8L3.8965 11.3965C3.70125 11.5917 3.70125 11.9083 3.8965 12.1035C3.99425 12.2013 4.12201 12.25 4.25001 12.25C4.37801 12.25 4.50578 12.2013 4.60353 12.1035L8.00001 8.70703L11.3965 12.1035C11.4942 12.2013 11.622 12.25 11.75 12.25C11.878 12.25 12.0058 12.2013 12.1035 12.1035C12.2988 11.9083 12.2988 11.5917 12.1035 11.3965L8.70705 8L12.1035 4.60352C12.2988 4.40827 12.2988 4.09173 12.1035 3.89648C11.9083 3.70123 11.5917 3.70123 11.3965 3.89648L8.00001 7.29297L4.60353 3.89648C4.50591 3.79886 4.37795 3.75 4.25001 3.75Z" fill="black"/>
</svg>
