<svg width="16" height="16" viewBox="0 0 16 16" fill="none" xmlns="http://www.w3.org/2000/svg">
<path d="M11.4565 2.95264C11.0493 2.95264 10.6425 3.10748 10.3325 3.41748L3.37741 10.3726L2.52243 12.9248C2.40993 13.2648 2.73517 13.59 3.07517 13.4775L5.62741 12.6226L12.5825 5.66748C13.2025 5.04748 13.2025 4.03998 12.5825 3.41748C12.2712 3.10748 11.8637 2.95264 11.4565 2.95264ZM11.415 3.99463C11.5661 3.99466 11.7172 4.05223 11.8325 4.16748C12.063 4.39798 12.063 4.77169 11.8325 5.00244L11.4902 5.34521L10.6548 4.50977L10.9975 4.16748C11.1128 4.05211 11.2639 3.9946 11.415 3.99463ZM9.94724 5.21729L10.7827 6.05273L5.83493 11.0024L4.99753 10.165L9.94724 5.21729ZM4.29001 10.8726L5.12741 11.71V11.7104L4.11765 12.1929C4.0309 12.2344 3.92714 12.2176 3.8574 12.1514C3.7844 12.0821 3.76409 11.9738 3.80759 11.8828L4.29001 10.8726Z" fill="black"/>
</svg>
